<svg version="1" xmlns="http://www.w3.org/2000/svg" width="933.333" height="933.333" viewBox="0 0 700.000000 700.000000"><path d="M71.9 69.4c-.1 1.1 0 274.4.1 278.3 0 2.3.2 2.3 13.9 2.3h13.9l.1-122.3c0-67.2 0-124.3.1-126.8v-4.5h253.5c177.8 0 253.5.3 253.6 1 .3 3.7.3 496.4 0 497.8-.3 1.7-7.3 1.8-128.7 1.8H350v28l142.7-.2 142.7-.3V351.4c.1-150.2-.1-275.4-.2-278.1l-.4-5H353.4c-201.2 0-281.4.3-281.5 1.1z"/><path d="M126.9 262.2c-.1.2-.2 2.4-.3 5-.1 4.6 0 4.8 2.9 5.4 5.5 1 6 1.1 9 1.9 6.6 1.7 11.3 4.6 12.6 7.6.9 2.3 1.2 18.4 1.2 67.7 0 35.6-.3 66.4-.7 68.4-.5 2.6-1.7 4.5-3.9 6.2-3 2.3-5.5 3-15.2 4.2-6.2.8-6.4.9-6.2 5.8l.1 4.6h94.2v-5c.1-4.4-.2-5-2-5.1-7-.2-16.2-3.6-19-7-1.4-1.7-2.7-3.6-2.7-4.2-.3-2.9-.5-56.3-.2-57.2.4-1.3 5.4-1.8 6.8-.7 3.9 2.7 31.6 39.7 46.6 62l11.4 17.1 69.9-.2 69.9-.2.1-4.7c.1-4.6 0-4.7-3.4-5.3-7.1-1.2-15.7-4.6-19.2-7.5-2.7-2.2-4.2-4.8-5.9-9.8-2.3-6.7-2.3-6.8-2.5-69.2l-.2-62.5 2.5 6.5c1.4 3.6 3.7 9.9 5.3 14 1.5 4.1 12.4 33.9 24.3 66.2 12 32.3 22.5 61.2 23.4 64.2l1.7 5.6h16.1l11.5-29.5c6.3-16.3 12.2-31.4 13.1-33.8 4.3-11.2 25.1-64.4 25.9-66.2.6-1.1 3-7.2 5.4-13.5l4.5-11.5v68c0 65.5 0 68.2-1.9 71.2-3 5-5.7 6-19.7 7.9-5.6.7-6.1 1.4-5.5 7.2l.4 3.2 47.7-.2 47.6-.3v-4.4l-.1-4.5-8.3-1.8c-9.8-2.1-14.7-5-15.8-9.3-1-4.4-1.1-131.4 0-135.5.5-1.9 1.6-4.3 2.5-5.3 1.7-1.9 8.9-4.2 16.2-5.2 5.6-.8 5.6-.8 5.4-4.2-.1-1.5-.3-3.6-.3-4.5-.1-1.5-3.3-1.7-39.1-1.7-21.4 0-39 .3-39.1.7-.8 7.2-5.7 21.7-19.1 56.2-8.2 21.2-16.5 42.8-18.5 48-1.9 5.2-3.9 9.8-4.2 10.3-.4.4-10.5-25.2-22.3-57l-21.6-57.8-40.6-.2-40.6-.2-.1 2.7c-.1 3 .2 6.5.6 7 .1.1 2.4.5 5.1.8 6.7.7 15.3 5.2 18.1 9.3 4.5 6.6 4.6 8.9 4.7 63.6 0 60.2-.3 65.6-4.4 73-4.4 7.9-21.5 12.3-34 8.7-7-2-14.9-9.7-32.3-31.7-7-8.8-13.3-16.7-14-17.5-3.8-4.6-19.7-25.8-19.7-26.3 0-.3 2.4-1.3 5.3-2.2 9.2-3 19-8.8 24.7-14.5 9.1-9 12.5-18.9 11.8-33.4-.9-17-9.9-27.8-28.7-34.1-3.8-1.3-8.7-2.6-10.8-3-2.1-.3-5-.8-6.3-1.2-2.4-.5-119.9-1.6-120.1-1.1zm89.6 12.2c15.1 2.4 24.9 11.2 27.2 24.5.3 2 .6 6.5.5 10.1-.2 20.5-8.2 32.4-25 37-6 1.6-22.2 2-22.3.6-.6-5.2-.3-72.2.4-72.7.9-.7 13.6-.3 19.2.5z"/></svg>